<svg width="25" height="31" viewBox="0 0 25 31" fill="none" xmlns="http://www.w3.org/2000/svg">
<path d="M14.4165 1.00002V6.63728M14.4165 12.2745V15.0932" stroke="#9747FF" stroke-width="2" stroke-linecap="round" stroke-linejoin="round"/>
<path d="M3.55565 1.00002C2.20761 2.59537 1.3004 4.52472 1.00012 6.63728" stroke="#9747FF" stroke-width="2" stroke-linecap="round"/>
<path d="M12.5001 8.75124C12.5001 8.0945 12.5001 7.76613 12.5972 7.50682C12.7272 7.16218 12.9758 6.88849 13.2885 6.74579C13.5236 6.63727 13.8213 6.63727 14.4168 6.63727C15.0122 6.63727 15.3099 6.63727 15.545 6.74438C15.8575 6.88772 16.1056 7.16192 16.235 7.50682C16.3334 7.76613 16.3334 8.0945 16.3334 8.75124V10.1606C16.3334 10.8173 16.3334 11.1457 16.2363 11.405C16.1063 11.7496 15.8577 12.0233 15.545 12.166C15.3099 12.2745 15.0122 12.2745 14.4168 12.2745C13.8213 12.2745 13.5236 12.2745 13.2885 12.1674C12.976 12.0241 12.7279 11.7499 12.5985 11.405C12.5001 11.1457 12.5001 10.8173 12.5001 10.1606V8.75124Z" stroke="#9747FF" stroke-width="2"/>
<path d="M5.14028 22.2652C5.38306 25.6348 7.80315 28.4972 10.9222 28.9214C12.0696 29.0764 13.2349 29.1863 14.4169 29.1863C15.5988 29.1863 16.7641 29.0764 17.9116 28.9214C21.0293 28.4972 23.4494 25.6348 23.6922 22.2652C23.8608 19.9299 24.0001 17.5341 24.0001 15.0932C24.0001 12.6522 23.8596 10.2564 23.6934 7.92117C23.4507 4.55149 21.0306 1.68918 17.9116 1.26497C16.7641 1.10995 15.5988 1.00002 14.4169 1.00002C13.2349 1.00002 12.0696 1.10995 10.9222 1.26497C7.80442 1.68777 5.38306 4.55149 5.14156 7.92117C4.97289 10.2564 4.83362 12.6522 4.83362 15.0932C4.83362 17.5341 4.97289 19.9299 5.14028 22.2652Z" stroke="#9747FF" stroke-width="2"/>
</svg>
