{
	"asset":{
		"generator":"Khronos glTF Blender I/O v4.5.47",
		"version":"2.0"
	},
	"scene":0,
	"scenes":[
		{
			"name":"Scene",
			"nodes":[
				0,
				1
			]
		}
	],
	"nodes":[
		{
			"mesh":0,
			"name":"Rock",
			"translation":[
				2.6571764945983887,
				1.6873159408569336,
				-1.5376644134521484
			]
		},
		{
			"mesh":0,
			"name":"rock2",
			"scale":[
				0.5574961304664612,
				0.5574961304664612,
				0.5574961304664612
			],
			"translation":[
				3.3461968898773193,
				1.4148476123809814,
				-0.18325549364089966
			]
		}
	],
	"materials":[
		{
			"doubleSided":true,
			"name":"Material.001",
			"pbrMetallicRoughness":{
				"metallicRoughnessTexture":{
					"index":0
				},
				"roughnessFactor":0.44538238644599915
			}
		}
	],
	"meshes":[
		{
			"name":"Cube.001",
			"primitives":[
				{
					"attributes":{
						"POSITION":0,
						"NORMAL":1,
						"TEXCOORD_0":2
					},
					"indices":3,
					"material":0
				}
			]
		}
	],
	"textures":[
		{
			"sampler":0,
			"source":0
		}
	],
	"images":[
		{
			"mimeType":"image/png",
			"name":"Rock020_2K-JPG_Roughness",
			"uri":"Rock020_2K-JPG_Roughness.png"
		}
	],
	"accessors":[
		{
			"bufferView":0,
			"componentType":5126,
			"count":573,
			"max":[
				1.748702049255371,
				1.5823899507522583,
				2.1620688438415527
			],
			"min":[
				-7.65665340423584,
				-2.0050792694091797,
				-1.4253990650177002
			],
			"type":"VEC3"
		},
		{
			"bufferView":1,
			"componentType":5126,
			"count":573,
			"type":"VEC3"
		},
		{
			"bufferView":2,
			"componentType":5126,
			"count":573,
			"type":"VEC2"
		},
		{
			"bufferView":3,
			"componentType":5123,
			"count":2916,
			"type":"SCALAR"
		}
	],
	"bufferViews":[
		{
			"buffer":0,
			"byteLength":6876,
			"byteOffset":0,
			"target":34962
		},
		{
			"buffer":0,
			"byteLength":6876,
			"byteOffset":6876,
			"target":34962
		},
		{
			"buffer":0,
			"byteLength":4584,
			"byteOffset":13752,
			"target":34962
		},
		{
			"buffer":0,
			"byteLength":5832,
			"byteOffset":18336,
			"target":34963
		}
	],
	"samplers":[
		{
			"magFilter":9729,
			"minFilter":9987
		}
	],
	"buffers":[
		{
			"byteLength":24168,
			"uri":"rocks.bin"
		}
	]
}
